wght1000.ufo
<glyph name="A" format="2">
	<unicode hex="0041"/>
	<advance width="1470"/>
	<outline>
		<contour>
			<point x="-31.6109619141" y="0" type="line"/>
			<point x="-31.6109619141" y="97.9951171875" type="line"/>
			<point x="147.5035400391" y="131.9951171875" type="line"/>
			<point x="355.3530883789" y="702.9793701172" type="line"/>
			<point x="671.0067138672" y="1487.5610351562" type="line"/>
			<point x="805.6854858398" y="1487.5610351562" type="line"/>
			<point x="1147.0272827148" y="627.7573242188" type="line"/>
			<point x="1331.2098999023" y="131.9951171875" type="line"/>
			<point x="1496.8821411133" y="97.9951171875" type="line"/>
			<point x="1496.8821411133" y="0" type="line"/>
			<point x="955.1890869141" y="0" type="line"/>
			<point x="955.1890869141" y="97.9951171875" type="line"/>
			<point x="1133.0055541992" y="131.9951171875" type="line"/>
			<point x="947.9833374023" y="655" type="line"/>
			<point x="757.2716674805" y="1119.1395263672" type="line"/>
			<point x="728.6962280273" y="1197.1567382812" type="line"/>
			<point x="718.6962280273" y="1197.1567382812" type="line"/>
			<point x="691.9984741211" y="1119.1395263672" type="line"/>
			<point x="487.8671264648" y="672.3637695312" type="line"/>
			<point x="315.1078491211" y="131.9951171875" type="line"/>
			<point x="496.6358642578" y="97.9951171875" type="line"/>
			<point x="496.6358642578" y="0" type="line"/>
		</contour>
		<contour>
			<point x="574.4305419922" y="565.3166503906" type="line"/>
			<point x="761.948425293" y="569.6583251953" type="line"/>
			<point x="788.1605834961" y="450.1130371094" type="line"/>
			<point x="574.4305419922" y="452.2260742188" type="line"/>
		</contour>
		<contour>
			<point x="312.4378051758" y="450.1130371094" type="line"/>
			<point x="342.3332519531" y="568.6583251953" type="line"/>
			<point x="574.4305419922" y="565.3166503906" type="line"/>
			<point x="574.4305419922" y="452.2260742188" type="line"/>
		</contour>
	</outline>
	<anchor name="bottom" x="735" y="0"/>
	<anchor name="ogonek" x="1318" y="0"/>
	<anchor name="tonos" x="492" y="1500"/>
	<anchor name="top" x="753" y="1500"/>
</glyph>
<glyph name="C" format="2">
	<unicode hex="0043"/>
	<advance width="1574"/>
	<outline>
		<contour>
			<point x="81.0009765625" y="698" type="qcurve" smooth="yes"/>
			<point x="81.0009765625" y="1058.46875"/>
			<point x="444.9416503906" y="1512.5366210938"/>
			<point x="792.6560668945" y="1512.5366210938" type="qcurve" smooth="yes"/>
			<point x="928.4004516602" y="1512.5366210938"/>
			<point x="1206.9627685547" y="1464.2780761719"/>
			<point x="1278.7208862305" y="1430" type="qcurve"/>
			<point x="1318.2988891602" y="1500" type="line"/>
			<point x="1439.6647949219" y="1500" type="line"/>
			<point x="1439.6647949219" y="1004.8386230469" type="line"/>
			<point x="1303.7979125977" y="1004.8386230469" type="line"/>
			<point x="1263.0269775391" y="1165.2434082031" type="line" smooth="yes"/>
			<point x="1237.6684570312" y="1268.8286743164"/>
			<point x="1008.5610351562" y="1382.7113037109"/>
			<point x="828.0571899414" y="1382.7113037109" type="qcurve" smooth="yes"/>
			<point x="560.448425293" y="1382.7113037109"/>
			<point x="269.0810546875" y="1066.5272216797"/>
			<point x="269.0810546875" y="740" type="qcurve" smooth="yes"/>
			<point x="269.0810546875" y="420.0754394531"/>
			<point x="587.3863525391" y="146.1634521484"/>
			<point x="858.9605712891" y="146.1634521484" type="qcurve" smooth="yes"/>
			<point x="1053.7290039062" y="146.1634521484"/>
			<point x="1357.8308105469" y="262.2185668945"/>
			<point x="1424.0827026367" y="333.9039916992" type="qcurve"/>
			<point x="1526.6231689453" y="251" type="line"/>
			<point x="1418.3245239258" y="122.4829101562"/>
			<point x="1028.8639526367" y="-19.5366210938"/>
			<point x="846.8139038086" y="-19.5366210938" type="qcurve" smooth="yes"/>
			<point x="534.41015625" y="-19.5366210938"/>
			<point x="81.0009765625" y="380.2102050781"/>
		</contour>
	</outline>
	<anchor name="bottom" x="836" y="0"/>
	<anchor name="top" x="836" y="1500"/>
</glyph>
<glyph name="D" format="2">
	<unicode hex="0044"/>
	<advance width="1569"/>
	<outline>
		<contour>
			<point x="82.0052490234" y="0" type="line"/>
			<point x="82.0052490234" y="99.9951171875" type="line"/>
			<point x="290.0042724609" y="134.9951171875" type="line"/>
			<point x="292.0042724609" y="754" type="line"/>
			<point x="290.0042724609" y="1352.0048828125" type="line"/>
			<point x="82.0052490234" y="1386.0048828125" type="line"/>
			<point x="82.0052490234" y="1500" type="line"/>
			<point x="711.0158691406" y="1500" type="line" smooth="yes"/>
			<point x="1081.2543945312" y="1502"/>
			<point x="1485.4923706055" y="1119"/>
			<point x="1485.4923706055" y="777" type="qcurve" smooth="yes"/>
			<point x="1485.4923706055" y="410"/>
			<point x="1078.0441894531" y="0"/>
			<point x="670.4383544922" y="0" type="qcurve" smooth="yes"/>
		</contour>
		<contour>
			<point x="469.2672119141" y="127.6287841797" type="line"/>
			<point x="503.0220336914" y="121.6287841797"/>
			<point x="653.5861816406" y="113.6287841797"/>
			<point x="728.8848266602" y="113.6287841797" type="qcurve" smooth="yes"/>
			<point x="994.2475585938" y="113.6287841797"/>
			<point x="1292.5790405273" y="472.7990722656"/>
			<point x="1296.3204956055" y="753" type="qcurve" smooth="yes"/>
			<point x="1297.755859375" y="1009.6226806641"/>
			<point x="985.1541748047" y="1362.7373046875"/>
			<point x="691.3885498047" y="1362.7373046875" type="qcurve" smooth="yes"/>
			<point x="643.1032714844" y="1362.7373046875"/>
			<point x="506.7634887695" y="1350.7373046875"/>
			<point x="470.2672119141" y="1345.7373046875" type="qcurve"/>
			<point x="467.2672119141" y="747" type="line"/>
		</contour>
	</outline>
	<anchor name="bottom" x="686" y="0"/>
	<anchor name="center" x="438" y="754"/>
	<anchor name="top" x="686" y="1500"/>
	<anchor name="liga" x="1590" y="0"/>
</glyph>
<glyph name="G" format="2">
	<unicode hex="0047"/>
	<advance width="1591"/>
	<outline>
		<contour>
			<point x="81.0009765625" y="733" type="qcurve" smooth="yes"/>
			<point x="81.0009765625" y="1093.2780761719"/>
			<point x="491.0062255859" y="1511.5366210938"/>
			<point x="845.1239624023" y="1511.5366210938" type="qcurve" smooth="yes"/>
			<point x="993.2252807617" y="1511.5366210938"/>
			<point x="1108.1340942383" y="1482.7658691406"/>
			<point x="1190.0657348633" y="1459" type="qcurve"/>
			<point x="1213.5486450195" y="1500" type="line"/>
			<point x="1343.950012207" y="1500" type="line"/>
			<point x="1343.950012207" y="1033.3876342773" type="line"/>
			<point x="1203.6566772461" y="1033.3876342773" type="line"/>
			<point x="1156.5889282227" y="1221.6586303711" type="line" smooth="yes"/>
			<point x="1140.5889282227" y="1286.6586303711"/>
			<point x="1046.1704711914" y="1372.6400146484"/>
			<point x="856.0501098633" y="1372.6400146484" type="qcurve" smooth="yes"/>
			<point x="584.7032470703" y="1372.6400146484"/>
			<point x="276.3540039062" y="1063.40625"/>
			<point x="276.3540039062" y="762" type="qcurve" smooth="yes"/>
			<point x="276.3540039062" y="428.7635498047"/>
			<point x="629.0971069336" y="120.0356445312"/>
			<point x="893.110168457" y="120.0356445312" type="qcurve" smooth="yes"/>
			<point x="1005.2807617188" y="120.0356445312"/>
			<point x="1190.4813232422" y="138.4010620117"/>
			<point x="1273.4834594727" y="154.0317993164" type="qcurve"/>
			<point x="1273.4834594727" y="526.0024414062" type="line"/>
			<point x="1099.7824707031" y="556.0024414062" type="line"/>
			<point x="1099.7824707031" y="670.9975585938" type="line"/>
			<point x="1555.0948486328" y="670.9975585938" type="line"/>
			<point x="1555.0948486328" y="556.0024414062" type="line"/>
			<point x="1442.2012329102" y="526.0024414062" type="line"/>
			<point x="1442.2012329102" y="199" type="line"/>
			<point x="1315.5582275391" y="81.2292480469"/>
			<point x="1020.9564819336" y="-19.5366210938"/>
			<point x="869.2760620117" y="-19.5366210938" type="qcurve" smooth="yes"/>
			<point x="547.4139404297" y="-19.5366210938"/>
			<point x="81.0009765625" y="350.4829101562"/>
		</contour>
	</outline>
	<anchor name="bottom" x="872" y="0"/>
	<anchor name="top" x="836" y="1500"/>
</glyph>
<glyph name="J" format="2">
	<unicode hex="004A"/>
	<advance width="760"/>
	<outline>
		<contour>
			<point x="10.801574707" y="-202.0053710938" type="qcurve"/>
			<point x="10.801574707" y="-52.2094726562" type="line"/>
			<point x="40.5455932617" y="-53.3594970703"/>
			<point x="82.8322753906" y="-51.8095703125"/>
			<point x="127.2349853516" y="-47.2596435547" type="qcurve" smooth="yes"/>
			<point x="213.5830688477" y="-38.1597900391"/>
			<point x="292.1018066406" y="43.7403564453"/>
			<point x="292.1018066406" y="137.7403564453" type="qcurve" smooth="yes"/>
			<point x="295.1018066406" y="754" type="line"/>
			<point x="293.1018066406" y="1352.0048828125" type="line"/>
			<point x="75.8239135742" y="1386.0048828125" type="line"/>
			<point x="75.8239135742" y="1500" type="line"/>
			<point x="684.5860595703" y="1500" type="line"/>
			<point x="684.5860595703" y="1389.9020996094" type="line"/>
			<point x="480.1831054688" y="1355.9020996094" type="line"/>
			<point x="479.1831054688" y="754" type="line"/>
			<point x="485.1831054688" y="223.4934082031" type="line" smooth="yes"/>
			<point x="487.3430786133" y="5.193359375"/>
			<point x="311.1223754883" y="-200.0053710938"/>
			<point x="169.3423461914" y="-207.0053710938" type="qcurve" smooth="yes"/>
			<point x="148.0346679688" y="-209.0053710938"/>
			<point x="43.0882568359" y="-206.0053710938"/>
		</contour>
	</outline>
	<anchor name="bottom" x="376" y="-208"/>
	<anchor name="top" x="376" y="1500"/>
	<anchor name="_liga" x="0" y="0"/>
</glyph>
<glyph name="L" format="2">
	<unicode hex="004C"/>
	<advance width="1297"/>
	<outline>
		<contour>
			<point x="124.0052490234" y="0" type="line"/>
			<point x="124.0052490234" y="99.9951171875" type="line"/>
			<point x="290.0042724609" y="134.9951171875" type="line"/>
			<point x="292.0042724609" y="754" type="line"/>
			<point x="290.0042724609" y="1352.0048828125" type="line"/>
			<point x="82.0052490234" y="1386.0048828125" type="line"/>
			<point x="82.0052490234" y="1500" type="line"/>
			<point x="684.5834350586" y="1500" type="line"/>
			<point x="684.5834350586" y="1386.0048828125" type="line"/>
			<point x="471.2672119141" y="1352.0048828125" type="line"/>
			<point x="470.2672119141" y="754" type="line"/>
			<point x="472.2672119141" y="138.5157470703" type="line"/>
			<point x="504.2672119141" y="111.5157470703" type="line"/>
			<point x="1057.3879394531" y="111.5157470703" type="line"/>
			<point x="1137.3879394531" y="438.8579101562" type="line"/>
			<point x="1274.2692871094" y="438.8579101562" type="line"/>
			<point x="1229.2692871094" y="0" type="line"/>
		</contour>
	</outline>
	<anchor name="bottom" x="705" y="0"/>
	<anchor name="centerright" x="928" y="750"/>
	<anchor name="top" x="632" y="1500"/>
	<anchor name="topright" x="784" y="1001"/>
	<anchor name="center" x="378" y="750"/>
	<anchor name="liga" x="1264" y="0"/>
</glyph>
<glyph name="M" format="2">
	<unicode hex="004D"/>
	<advance width="2107"/>
	<outline>
		<contour>
			<point x="91.0052490234" y="0" type="line"/>
			<point x="91.0052490234" y="99.9951171875" type="line"/>
			<point x="287.0042724609" y="134.9951171875" type="line"/>
			<point x="289.0042724609" y="754" type="line"/>
			<point x="287.0042724609" y="1353.0048828125" type="line"/>
			<point x="91.0052490234" y="1387.0048828125" type="line"/>
			<point x="91.0052490234" y="1500" type="line"/>
			<point x="539.1278076172" y="1502.0217285156" type="line"/>
			<point x="810.9964599609" y="859.6530761719" type="line"/>
			<point x="1004" y="370" type="line"/>
			<point x="1046" y="256" type="line"/>
			<point x="1056" y="256" type="line"/>
			<point x="1098" y="370" type="line"/>
			<point x="1309.159362793" y="916.90234375" type="line"/>
			<point x="1558.5831298828" y="1500" type="line"/>
			<point x="2025.217590332" y="1500" type="line"/>
			<point x="2025.217590332" y="1387.0048828125" type="line"/>
			<point x="1828.2185668945" y="1353.0048828125" type="line"/>
			<point x="1825.9297485352" y="754" type="line"/>
			<point x="1828.2185668945" y="134.9951171875" type="line"/>
			<point x="2025.217590332" y="99.9951171875" type="line"/>
			<point x="2025.217590332" y="0" type="line"/>
			<point x="1446.174987793" y="0" type="line"/>
			<point x="1447.0414428711" y="99.9951171875" type="line"/>
			<point x="1636.500793457" y="134.9951171875" type="line"/>
			<point x="1639.500793457" y="752" type="line"/>
			<point x="1646" y="1210" type="line"/>
			<point x="1650" y="1329" type="line"/>
			<point x="1640" y="1331" type="line"/>
			<point x="1601" y="1224" type="line"/>
			<point x="1388.5424194336" y="752.8012695312" type="line"/>
			<point x="1089.5325317383" y="-5" type="line"/>
			<point x="961.6551513672" y="-5" type="line"/>
			<point x="656.6998291016" y="715.9465332031" type="line"/>
			<point x="458" y="1229" type="line"/>
			<point x="418" y="1336" type="line"/>
			<point x="408" y="1334" type="line"/>
			<point x="413" y="1215" type="line"/>
			<point x="383.0704345703" y="754" type="line"/>
			<point x="385.0704345703" y="134.9951171875" type="line"/>
			<point x="559.51171875" y="99.9951171875" type="line"/>
			<point x="559.51171875" y="0" type="line"/>
		</contour>
	</outline>
	<anchor name="bottom" x="1025" y="0"/>
	<anchor name="top" x="1058" y="1500"/>
</glyph>
<glyph name="N" format="2">
	<unicode hex="004E"/>
	<advance width="1603"/>
	<outline>
		<contour>
			<point x="82.0052490234" y="0" type="line"/>
			<point x="82.0052490234" y="99.9951171875" type="line"/>
			<point x="287.0042724609" y="134.9951171875" type="line"/>
			<point x="289.0042724609" y="754" type="line"/>
			<point x="287.0042724609" y="1353.0048828125" type="line"/>
			<point x="82.0052490234" y="1387.0048828125" type="line"/>
			<point x="82.0052490234" y="1500" type="line"/>
			<point x="490.7006835938" y="1500" type="line"/>
			<point x="936.7959594727" y="776.4196777344" type="line"/>
			<point x="1148" y="412" type="line"/>
			<point x="1206" y="310" type="line"/>
			<point x="1215" y="313" type="line"/>
			<point x="1211" y="434" type="line"/>
			<point x="1197.0601196289" y="759.3623046875" type="line"/>
			<point x="1195.6377563477" y="1353.0048828125" type="line"/>
			<point x="988.7542114258" y="1387.0048828125" type="line"/>
			<point x="988.7542114258" y="1500" type="line"/>
			<point x="1531.4351196289" y="1500" type="line"/>
			<point x="1531.4351196289" y="1387.0048828125" type="line"/>
			<point x="1329.4360961914" y="1353.0048828125" type="line"/>
			<point x="1327.4360961914" y="735.3623046875" type="line"/>
			<point x="1323.4360961914" y="0" type="line"/>
			<point x="1191.5715332031" y="0" type="line"/>
			<point x="810.5366210938" y="623.5390625" type="line"/>
			<point x="472" y="1219" type="line"/>
			<point x="414" y="1321" type="line"/>
			<point x="405" y="1318" type="line"/>
			<point x="410" y="1198" type="line"/>
			<point x="419.8591308594" y="773.7294921875" type="line"/>
			<point x="421.8591308594" y="134.9951171875" type="line"/>
			<point x="625.3004150391" y="99.9951171875" type="line"/>
			<point x="625.3004150391" y="0" type="line"/>
		</contour>
	</outline>
	<anchor name="bottom" x="800" y="0"/>
	<anchor name="top" x="800" y="1500"/>
	<anchor name="engtail" x="1324" y="0"/>
	<anchor name="liga" x="1600" y="0"/>
</glyph>
<glyph name="P" format="2">
	<unicode hex="0050"/>
	<advance width="1234"/>
	<outline>
		<contour>
			<point x="82.0052490234" y="0" type="line"/>
			<point x="82.0052490234" y="99.9951171875" type="line"/>
			<point x="290.0042724609" y="135.9951171875" type="line"/>
			<point x="292.875" y="754" type="line"/>
			<point x="290.0042724609" y="1352.0048828125" type="line"/>
			<point x="82.0052490234" y="1386.0048828125" type="line"/>
			<point x="82.0052490234" y="1500" type="line"/>
			<point x="747.8815307617" y="1500" type="line" smooth="yes"/>
			<point x="932.5232543945" y="1500"/>
			<point x="1179.0650634766" y="1277"/>
			<point x="1179.0650634766" y="1064" type="qcurve" smooth="yes"/>
			<point x="1179.0650634766" y="796"/>
			<point x="885.6775512695" y="553.3538818359"/>
			<point x="690.1660766602" y="553.3538818359" type="qcurve" smooth="yes"/>
			<point x="601.9797363281" y="553.3538818359"/>
			<point x="467.2672119141" y="567.3538818359"/>
			<point x="379.5599365234" y="582.3538818359" type="qcurve"/>
			<point x="388.5599365234" y="713.7935180664" type="line"/>
			<point x="458.8452148438" y="703.7935180664"/>
			<point x="537.5448608398" y="692.7935180664"/>
			<point x="636.3264160156" y="692.7935180664" type="qcurve" smooth="yes"/>
			<point x="785.8156738281" y="692.7935180664"/>
			<point x="993.2567138672" y="873.2674560547"/>
			<point x="989.2567138672" y="1046" type="qcurve" smooth="yes"/>
			<point x="986.2567138672" y="1185.0710449219"/>
			<point x="806.4876708984" y="1359.046875"/>
			<point x="653.3322143555" y="1359.046875" type="qcurve" smooth="yes"/>
			<point x="498.2672119141" y="1359.046875" type="line"/>
			<point x="470.2672119141" y="1339.046875" type="line"/>
			<point x="468.2672119141" y="764" type="line"/>
			<point x="470.2672119141" y="134.9951171875" type="line"/>
			<point x="683.1507568359" y="99.9951171875" type="line"/>
			<point x="683.1507568359" y="0" type="line"/>
		</contour>
	</outline>
	<anchor name="bottom" x="634" y="0"/>
	<anchor name="top" x="634" y="1500"/>
</glyph>
<glyph name="Q" format="2">
	<unicode hex="0051"/>
	<advance width="1662"/>
	<outline>
		<contour>
			<point x="81.0009765625" y="745.1768188477" type="qcurve" smooth="yes"/>
			<point x="81.0009765625" y="1069.3975830078"/>
			<point x="516.1448364258" y="1522.0244140625"/>
			<point x="829.8922119141" y="1522.0244140625" type="qcurve" smooth="yes"/>
			<point x="1161.3623046875" y="1522.0244140625"/>
			<point x="1580.9602661133" y="1099.2683105469"/>
			<point x="1580.9602661133" y="758" type="qcurve" smooth="yes"/>
			<point x="1580.9602661133" y="432.7316894531"/>
			<point x="1135.4008178711" y="-17.2878417969"/>
			<point x="827.6192626953" y="-17.2878417969" type="qcurve" smooth="yes"/>
			<point x="502.0975952148" y="-17.2878417969"/>
			<point x="81.0009765625" y="419.6633300781"/>
		</contour>
		<contour>
			<point x="268.0810546875" y="776.8231811523" type="qcurve" smooth="yes"/>
			<point x="268.0810546875" y="487.237121582"/>
			<point x="576.3727416992" y="114.0509643555"/>
			<point x="827.4376220703" y="114.0509643555" type="qcurve" smooth="yes"/>
			<point x="1096.6075439453" y="114.0509643555"/>
			<point x="1388.8801879883" y="447.3773193359"/>
			<point x="1388.8801879883" y="755" type="qcurve" smooth="yes"/>
			<point x="1388.8801879883" y="1047.5860595703"/>
			<point x="1085.5022583008" y="1379.8108520508"/>
			<point x="831.0690307617" y="1379.8108520508" type="qcurve" smooth="yes"/>
			<point x="560.0746459961" y="1379.8108520508"/>
			<point x="268.0810546875" y="1078.8432006836"/>
		</contour>
		<contour>
			<point x="573" y="-39" type="qcurve"/>
			<point x="1290" y="-274" type="line"/>
			<point x="1350" y="-274"/>
			<point x="1442" y="-186"/>
			<point x="1475" y="-132" type="qcurve"/>
			<point x="1565" y="-184" type="line"/>
			<point x="1515" y="-288"/>
			<point x="1371" y="-429"/>
			<point x="1239" y="-429" type="qcurve"/>
			<point x="540" y="-194" type="line"/>
			<point x="479" y="-194"/>
			<point x="363" y="-236"/>
			<point x="306" y="-288" type="qcurve"/>
			<point x="238" y="-224" type="line"/>
			<point x="299" y="-132"/>
			<point x="476" y="-39"/>
		</contour>
		<contour>
			<point x="539.9719848633" y="-54.2069091797" type="line"/>
			<point x="747.7415771484" y="434.1467285156" type="line"/>
			<point x="856.6787109375" y="337.8034667969" type="line"/>
			<point x="666.7798461914" y="-84.1965332031" type="line"/>
		</contour>
	</outline>
	<anchor name="bottom" x="832" y="0"/>
	<anchor name="top" x="823" y="1502"/>
</glyph>
<glyph name="R" format="2">
	<unicode hex="0052"/>
	<advance width="1355"/>
	<outline>
		<contour>
			<point x="82.3150024414" y="0" type="line"/>
			<point x="82.3150024414" y="99.9951171875" type="line"/>
			<point x="290.3140258789" y="134.9951171875" type="line"/>
			<point x="292.3140258789" y="768.5458984375" type="line"/>
			<point x="290.3140258789" y="1352.0048828125" type="line"/>
			<point x="82.3150024414" y="1386.0048828125" type="line"/>
			<point x="82.3150024414" y="1500" type="line"/>
			<point x="703.3992919922" y="1500" type="line" smooth="yes"/>
			<point x="883.6038818359" y="1500"/>
			<point x="1103.0278320312" y="1316.1499633789"/>
			<point x="1103.0278320312" y="1150.6512451172" type="qcurve" smooth="yes"/>
			<point x="1103.0278320312" y="979.842956543"/>
			<point x="856.0210571289" y="723.2729492188"/>
			<point x="772.5828857422" y="723.2729492188" type="qcurve" smooth="yes"/>
			<point x="676.1450805664" y="723.2729492188"/>
			<point x="418.3200683594" y="730.2729492188"/>
			<point x="353.2500610352" y="736.2729492188" type="qcurve"/>
			<point x="352.2500610352" y="865.2825927734" type="line"/>
			<point x="642.1742553711" y="865.2825927734" type="line" smooth="yes"/>
			<point x="795.3469848633" y="865.2825927734"/>
			<point x="910.4921875" y="1003.5020751953"/>
			<point x="910.4921875" y="1142.4399414062" type="qcurve" smooth="yes"/>
			<point x="910.4921875" y="1245.4144287109"/>
			<point x="807.7442626953" y="1359.3638305664"/>
			<point x="672.5888061523" y="1359.3638305664" type="qcurve" smooth="yes"/>
			<point x="493.576965332" y="1359.3638305664" type="line"/>
			<point x="471.576965332" y="1343.3638305664" type="line"/>
			<point x="469.576965332" y="750" type="line"/>
			<point x="470.576965332" y="134.9951171875" type="line"/>
			<point x="681.7297973633" y="99.9951171875" type="line"/>
			<point x="681.7297973633" y="0" type="line"/>
		</contour>
		<contour>
			<point x="610.5568847656" y="770.651550293" type="line"/>
			<point x="759.235168457" y="820.7421264648" type="line"/>
			<point x="1072.6122436523" y="340.9951171875" type="line" smooth="yes"/>
			<point x="1157.2075195312" y="214.1489868164"/>
			<point x="1294.061340332" y="98.2164916992"/>
			<point x="1359.1215820312" y="99.9951171875" type="qcurve"/>
			<point x="1359.1215820312" y="0" type="line"/>
			<point x="1111.9334716797" y="0" type="line"/>
			<point x="1049.3212890625" y="56" type="line"/>
		</contour>
	</outline>
	<anchor name="bottom" x="803" y="0"/>
	<anchor name="top" x="630" y="1500"/>
</glyph>
<glyph name="T" format="2">
	<unicode hex="0054"/>
	<advance width="1340"/>
	<outline>
		<contour>
			<point x="47" y="1042" type="line"/>
			<point x="47" y="1500" type="line"/>
			<point x="1293" y="1500" type="line"/>
			<point x="1293" y="1042" type="line"/>
			<point x="1183" y="1042" type="line"/>
			<point x="1148" y="1372" type="line"/>
			<point x="779" y="1372" type="line"/>
			<point x="760" y="1352" type="line"/>
			<point x="758" y="754" type="line"/>
			<point x="760" y="136" type="line"/>
			<point x="977" y="100" type="line"/>
			<point x="977" y="0" type="line"/>
			<point x="361" y="0" type="line"/>
			<point x="361" y="100" type="line"/>
			<point x="580" y="136" type="line"/>
			<point x="582" y="754" type="line"/>
			<point x="580" y="1352" type="line"/>
			<point x="571" y="1372" type="line"/>
			<point x="192" y="1372" type="line"/>
			<point x="157" y="1042" type="line"/>
		</contour>
	</outline>
	<anchor name="bottom" x="644" y="0"/>
	<anchor name="center" x="644" y="750"/>
	<anchor name="top" x="644" y="1500"/>
	<anchor name="cy_descender" x="951" y="100"/>
</glyph>
<glyph name="U" format="2">
	<unicode hex="0055"/>
	<advance width="1626"/>
	<outline>
		<contour>
			<point x="57.1549072266" y="1387.0048828125" type="line"/>
			<point x="57.1549072266" y="1500" type="line"/>
			<point x="628.7378540039" y="1500" type="line"/>
			<point x="628.7378540039" y="1387.0048828125" type="line"/>
			<point x="440.8830566406" y="1353.0048828125" type="line"/>
			<point x="437.8830566406" y="794" type="line"/>
			<point x="439.8830566406" y="463.680480957" type="line" smooth="yes"/>
			<point x="440.4229736328" y="309.660949707"/>
			<point x="655.4702758789" y="125.233215332"/>
			<point x="846.7307739258" y="125.233215332" type="qcurve" smooth="yes"/>
			<point x="1021.7811889648" y="125.233215332"/>
			<point x="1237.5596313477" y="329.660949707"/>
			<point x="1242.712097168" y="478.680480957" type="qcurve" smooth="yes"/>
			<point x="1243.712097168" y="794" type="line"/>
			<point x="1244.0181884766" y="1353.0048828125" type="line"/>
			<point x="1044.5769042969" y="1387.0048828125" type="line"/>
			<point x="1044.5769042969" y="1500" type="line"/>
			<point x="1576.147277832" y="1500" type="line"/>
			<point x="1576.147277832" y="1387.0048828125" type="line"/>
			<point x="1380.1482543945" y="1353.0048828125" type="line"/>
			<point x="1379.1482543945" y="794" type="line"/>
			<point x="1380.1591186523" y="478" type="line" smooth="yes"/>
			<point x="1381.6053466797" y="237.7316894531"/>
			<point x="1132.1305541992" y="-18.5366210938"/>
			<point x="827.0447998047" y="-18.5366210938" type="qcurve" smooth="yes"/>
			<point x="529.0093383789" y="-18.5366210938"/>
			<point x="261.7116699219" y="222.4829101562"/>
			<point x="262.7116699219" y="466" type="qcurve" smooth="yes"/>
			<point x="262.984375" y="794" type="line"/>
			<point x="262.7116699219" y="1353.0048828125" type="line"/>
		</contour>
	</outline>
	<anchor name="bottom" x="832" y="0"/>
	<anchor name="ogonek" x="1042" y="0"/>
	<anchor name="top" x="832" y="1500"/>
	<anchor name="topright" x="1590" y="1500"/>
</glyph>
<glyph name="W" format="2">
	<unicode hex="0057"/>
	<advance width="2049"/>
	<outline>
		<contour>
			<point x="628.8721313477" y="14.9267578125" type="line"/>
			<point x="373.15625" y="731.7727050781" type="line"/>
			<point x="140.0029296875" y="1353.0048828125" type="line"/>
			<point x="-26.2270507812" y="1387.0048828125" type="line"/>
			<point x="-26.2270507812" y="1500" type="line"/>
			<point x="482.6157226562" y="1500" type="line"/>
			<point x="482.6157226562" y="1387.0048828125" type="line"/>
			<point x="325.5012207031" y="1353.0048828125" type="line"/>
			<point x="545.2362060547" y="754.8735351562" type="line"/>
			<point x="675" y="370" type="line"/>
			<point x="710" y="256" type="line"/>
			<point x="720" y="256" type="line"/>
			<point x="759" y="370" type="line"/>
			<point x="868" y="674" type="line"/>
			<point x="996" y="1038" type="line"/>
			<point x="876.0086669922" y="1356.0048828125" type="line"/>
			<point x="732.7786865234" y="1390.0048828125" type="line"/>
			<point x="732.7786865234" y="1500" type="line"/>
			<point x="1227.4989013672" y="1500" type="line"/>
			<point x="1227.4989013672" y="1390.0048828125" type="line"/>
			<point x="1072.2689208984" y="1356.0048828125" type="line"/>
			<point x="1239.1567382812" y="870.0317382812" type="line"/>
			<point x="1397" y="370" type="line"/>
			<point x="1430" y="256" type="line"/>
			<point x="1440" y="256" type="line"/>
			<point x="1476" y="370" type="line"/>
			<point x="1629" y="803" type="line"/>
			<point x="1793.2430419922" y="1353.0048828125" type="line"/>
			<point x="1614.8305053711" y="1387.0048828125" type="line"/>
			<point x="1614.8305053711" y="1500" type="line"/>
			<point x="2131.7969360352" y="1500" type="line"/>
			<point x="2131.7969360352" y="1387.0048828125" type="line"/>
			<point x="1952.682434082" y="1353.0048828125" type="line"/>
			<point x="1747" y="760" type="line"/>
			<point x="1456.4758911133" y="14.9267578125" type="line"/>
			<point x="1325.5858154297" y="14.9267578125" type="line"/>
			<point x="1096" y="750" type="line"/>
			<point x="1060" y="866" type="line"/>
			<point x="1050" y="866" type="line"/>
			<point x="1014" y="750" type="line"/>
			<point x="734.5379638672" y="14.9267578125" type="line"/>
		</contour>
	</outline>
	<anchor name="bottom" x="1051" y="0"/>
	<anchor name="top" x="1051" y="1500"/>
</glyph>
<glyph name="X" format="2">
	<unicode hex="0058"/>
	<advance width="1367"/>
	<outline>
		<contour>
			<point x="-27.8933105469" y="0" type="line"/>
			<point x="-27.8933105469" y="99.9951171875" type="line"/>
			<point x="134.3366699219" y="133.9951171875" type="line"/>
			<point x="581.3271484375" y="778.0537719727" type="line"/>
			<point x="168.8744506836" y="1353.0048828125" type="line"/>
			<point x="8.086730957" y="1387.0048828125" type="line"/>
			<point x="8.086730957" y="1500" type="line"/>
			<point x="532.6322021484" y="1500" type="line"/>
			<point x="532.6322021484" y="1387.0048828125" type="line"/>
			<point x="375.6810913086" y="1353.0048828125" type="line"/>
			<point x="609.1177978516" y="1012.1444702148" type="line"/>
			<point x="661.2589111328" y="943.477355957" type="line"/>
			<point x="671.2589111328" y="943.477355957" type="line"/>
			<point x="713.4611816406" y="1025.9862670898" type="line"/>
			<point x="917.1125488281" y="1353.0048828125" type="line"/>
			<point x="769.5845336914" y="1387.0048828125" type="line"/>
			<point x="769.5845336914" y="1500" type="line"/>
			<point x="1260.6740112305" y="1500" type="line"/>
			<point x="1260.6740112305" y="1387.0048828125" type="line"/>
			<point x="1093.0017700195" y="1353.0048828125" type="line"/>
			<point x="754.4320678711" y="829.6727294922" type="line"/>
			<point x="1233.4477539062" y="133.9951171875" type="line"/>
			<point x="1395.677734375" y="99.9951171875" type="line"/>
			<point x="1395.677734375" y="0" type="line"/>
			<point x="865.5991821289" y="0" type="line"/>
			<point x="865.5991821289" y="99.9951171875" type="line"/>
			<point x="1018.5502929688" y="133.9951171875" type="line"/>
			<point x="709.010559082" y="595.5638427734" type="line"/>
			<point x="654.9024047852" y="673.8037109375" type="line"/>
			<point x="644.9024047852" y="673.8037109375" type="line"/>
			<point x="588.9016723633" y="584.2268066406" type="line"/>
			<point x="310.2258911133" y="133.9951171875" type="line"/>
			<point x="471.75390625" y="99.9951171875" type="line"/>
			<point x="471.75390625" y="0" type="line"/>
		</contour>
	</outline>
	<anchor name="bottom" x="661" y="0"/>
	<anchor name="top" x="673" y="1500"/>
	<anchor name="cy_descender" x="1386" y="100"/>
	<anchor name="center" x="663" y="811"/>
</glyph>
<glyph name="Y" format="2">
	<unicode hex="0059"/>
	<advance width="1260"/>
	<outline>
		<contour>
			<point x="322.599609375" y="0" type="line"/>
			<point x="322.599609375" y="99.9951171875" type="line"/>
			<point x="542.3293457031" y="133.9951171875" type="line"/>
			<point x="544.3293457031" y="660.9252319336" type="line"/>
			<point x="364.2158203125" y="970.0280761719" type="line"/>
			<point x="125.0029296875" y="1353.0048828125" type="line"/>
			<point x="-25.0732421875" y="1387.0048828125" type="line"/>
			<point x="-25.0732421875" y="1500" type="line"/>
			<point x="473.915222168" y="1500" type="line"/>
			<point x="473.915222168" y="1387.0048828125" type="line"/>
			<point x="327.2717285156" y="1353.0048828125" type="line"/>
			<point x="564.115234375" y="924.1701660156" type="line"/>
			<point x="659" y="783" type="line"/>
			<point x="669" y="783" type="line"/>
			<point x="820.2474365234" y="1057.6806640625" type="line"/>
			<point x="978.4307250977" y="1353.0048828125" type="line"/>
			<point x="827.4604492188" y="1387.0048828125" type="line"/>
			<point x="827.4604492188" y="1500" type="line"/>
			<point x="1281.7353515625" y="1500" type="line"/>
			<point x="1281.7353515625" y="1387.0048828125" type="line"/>
			<point x="1125.5053710938" y="1353.0048828125" type="line"/>
			<point x="917.6920166016" y="1007.7626953125" type="line"/>
			<point x="719.3955688477" y="641.5529785156" type="line"/>
			<point x="720.5012207031" y="133.9951171875" type="line"/>
			<point x="936.9425048828" y="99.9951171875" type="line"/>
			<point x="936.9425048828" y="0" type="line"/>
		</contour>
	</outline>
	<anchor name="bottom" x="636" y="0"/>
	<anchor name="top" x="640" y="1500"/>
	<anchor name="tonos" x="-100" y="1500"/>
	<anchor name="center" x="636" y="582"/>
</glyph>
<glyph name="Z" format="2">
	<unicode hex="005A"/>
	<advance width="1198"/>
	<outline>
		<contour>
			<point x="100.6137695312" y="0" type="line"/>
			<point x="72.7907104492" y="97.5256958008" type="line"/>
			<point x="869.7459106445" y="1356.3712158203" type="line"/>
			<point x="861.7459106445" y="1371.3712158203" type="line"/>
			<point x="292.3911132812" y="1371.3712158203" type="line"/>
			<point x="240.5900878906" y="1070.1619873047" type="line"/>
			<point x="126.3896484375" y="1070.1619873047" type="line"/>
			<point x="126.3896484375" y="1500" type="line"/>
			<point x="1097.6948242188" y="1500" type="line"/>
			<point x="1097.6948242188" y="1404.9903564453" type="line"/>
			<point x="289.0859375" y="147.7344360352" type="line"/>
			<point x="298.0859375" y="128.7344360352" type="line"/>
			<point x="949.3254394531" y="128.7344360352" type="line"/>
			<point x="1036.4609375" y="435.7421264648" type="line"/>
			<point x="1160.1943969727" y="435.7421264648" type="line"/>
			<point x="1113.3269042969" y="0" type="line"/>
		</contour>
	</outline>
	<anchor name="bottom" x="583" y="0"/>
	<anchor name="top" x="583" y="1500"/>
	<anchor name="_liga" x="0" y="0"/>
</glyph>
<glyph name="a" format="2">
	<unicode hex="0061"/>
	<advance width="1076"/>
	<outline>
		<contour>
			<point x="65.1630859375" y="258.8875732422" type="qcurve" smooth="yes"/>
			<point x="65.1630859375" y="401.9530029297"/>
			<point x="453.4743041992" y="591.0021362305"/>
			<point x="861.6832885742" y="627.6677856445" type="qcurve"/>
			<point x="869.6832885742" y="555.0106201172" type="line"/>
			<point x="501.841003418" y="528.3063964844"/>
			<point x="243.8790283203" y="394.9147338867"/>
			<point x="245.8790283203" y="278.3482666016" type="qcurve" smooth="yes"/>
			<point x="246.8790283203" y="199.4664916992"/>
			<point x="335.8892211914" y="112.798828125"/>
			<point x="417.9524536133" y="112.798828125" type="qcurve" smooth="yes"/>
			<point x="486.1998901367" y="112.798828125"/>
			<point x="665.5249023438" y="206.6920166016"/>
			<point x="693.9670410156" y="253.307434082" type="qcurve"/>
			<point x="695.9670410156" y="552.4984741211" type="line" smooth="yes"/>
			<point x="696.9670410156" y="753.3700561523"/>
			<point x="586.8283081055" y="879.8894042969"/>
			<point x="469.3276367188" y="879.8894042969" type="qcurve" smooth="yes"/>
			<point x="387.2732543945" y="879.8894042969"/>
			<point x="265.2201538086" y="836.5232543945"/>
			<point x="276.5378417969" y="838.7948608398" type="qcurve"/>
			<point x="291.6087646484" y="809.7657470703"/>
			<point x="314.5892333984" y="769.039855957"/>
			<point x="320.7124023438" y="750.0977172852" type="qcurve" smooth="yes"/>
			<point x="334.538269043" y="710.9682617188"/>
			<point x="285.9144897461" y="656.0646972656"/>
			<point x="244.3332519531" y="651.0646972656" type="qcurve" smooth="yes"/>
			<point x="211.0743408203" y="646.0646972656"/>
			<point x="145.2194213867" y="720.2327270508"/>
			<point x="145.2194213867" y="782.1362915039" type="qcurve" smooth="yes"/>
			<point x="145.2194213867" y="882.0907592773"/>
			<point x="333.0221557617" y="1020.1384277344"/>
			<point x="497.5451660156" y="1020.1384277344" type="qcurve" smooth="yes"/>
			<point x="666.7291259766" y="1020.1384277344"/>
			<point x="853.1484985352" y="854.7736206055"/>
			<point x="855.1484985352" y="675.2014770508" type="qcurve" smooth="yes"/>
			<point x="858.1484985352" y="114.9975585938" type="line"/>
			<point x="1009.1484985352" y="79.9975585938" type="line"/>
			<point x="1009.1484985352" y="0" type="line"/>
			<point x="759.6832885742" y="0" type="line"/>
			<point x="707.6832885742" y="61" type="line"/>
			<point x="697.8674926758" y="95.8673706055" type="line"/>
			<point x="665.1309814453" y="47.9547729492"/>
			<point x="425.3823852539" y="-9.5366210938"/>
			<point x="304.576171875" y="-9.5366210938" type="qcurve" smooth="yes"/>
			<point x="196.9059448242" y="-9.5366210938"/>
			<point x="65.1630859375" y="144.2146606445"/>
		</contour>
	</outline>
	<anchor name="bottom" x="548" y="0"/>
	<anchor name="ogonek" x="878" y="0"/>
	<anchor name="top" x="514" y="1000"/>
</glyph>
<glyph name="b" format="2">
	<unicode hex="0062"/>
	<advance width="1141"/>
	<outline>
		<contour>
			<point x="154.5845947266" y="0" type="line"/>
			<point x="162.5845947266" y="426.9993896484" type="line"/>
			<point x="155.3008422852" y="1372.0021972656" type="line"/>
			<point x="7.3008422852" y="1402.0021972656" type="line"/>
			<point x="7.3008422852" y="1500" type="line"/>
			<point x="240.0690917969" y="1529.0244140625" type="line"/>
			<point x="272.0690917969" y="1529.0244140625" type="line"/>
			<point x="329.0690917969" y="1482.0244140625" type="line"/>
			<point x="328.0690917969" y="834.9721069336" type="line"/>
			<point x="349.25390625" y="915.0827636719"/>
			<point x="535.4068603516" y="1013.93359375"/>
			<point x="658.1049804688" y="1013.93359375" type="qcurve" smooth="yes"/>
			<point x="841.5454711914" y="1013.93359375"/>
			<point x="1076.5322875977" y="753.6696777344"/>
			<point x="1076.5322875977" y="531.2497558594" type="qcurve" smooth="yes"/>
			<point x="1076.5322875977" y="289.2834472656"/>
			<point x="850.6394042969" y="-6.2780761719"/>
			<point x="616.9786987305" y="-6.2780761719" type="qcurve" smooth="yes"/>
			<point x="502.1224975586" y="-6.2780761719"/>
			<point x="345.3607177734" y="50.4877929688"/>
			<point x="311.5787353516" y="84.7830810547" type="qcurve"/>
			<point x="223.5787353516" y="0" type="line"/>
		</contour>
		<contour>
			<point x="326.0690917969" y="420.3900756836" type="line"/>
			<point x="329.0690917969" y="242.9516601562" type="line"/>
			<point x="353.813293457" y="191.25390625"/>
			<point x="526.3164672852" y="116.1631469727"/>
			<point x="616.002746582" y="116.1631469727" type="qcurve" smooth="yes"/>
			<point x="759.1775512695" y="116.1631469727"/>
			<point x="923.6015625" y="369.2520141602"/>
			<point x="923.6015625" y="488.8642578125" type="qcurve" smooth="yes"/>
			<point x="923.6015625" y="617.5645751953"/>
			<point x="760.1010742188" y="845.5310058594"/>
			<point x="607.80859375" y="845.5310058594" type="qcurve" smooth="yes"/>
			<point x="506.645690918" y="845.5310058594"/>
			<point x="362.9215698242" y="775.7275390625"/>
			<point x="330.0690917969" y="721.9969482422" type="qcurve"/>
		</contour>
	</outline>
	<anchor name="bottom" x="571" y="0"/>
	<anchor name="top" x="571" y="1533"/>
</glyph>
<glyph name="c" format="2">
	<unicode hex="0063"/>
	<advance width="981"/>
	<outline>
		<contour>
			<point x="61.9975585938" y="478.0114746094" type="qcurve" smooth="yes"/>
			<point x="61.9975585938" y="721.5627441406"/>
			<point x="328.1984863281" y="1021.0153198242"/>
			<point x="565.041015625" y="1021.0153198242" type="qcurve" smooth="yes"/>
			<point x="690.3975219727" y="1021.0153198242"/>
			<point x="725.7412719727" y="983.7518920898"/>
			<point x="776.260925293" y="952.493347168" type="qcurve"/>
			<point x="804.8159790039" y="1001.493347168" type="line"/>
			<point x="897.9389038086" y="1001.493347168" type="line"/>
			<point x="897.9389038086" y="603.2661132812" type="line"/>
			<point x="804.7713012695" y="603.2661132812" type="line"/>
			<point x="777.5498046875" y="718.2650756836" type="line" smooth="yes"/>
			<point x="757.5061035156" y="798.2644042969"/>
			<point x="630.4962158203" y="895.7084350586"/>
			<point x="538.3074951172" y="895.7084350586" type="qcurve" smooth="yes"/>
			<point x="387.5738525391" y="895.7084350586"/>
			<point x="247.6307983398" y="681.483215332"/>
			<point x="247.6307983398" y="515.8001098633" type="qcurve" smooth="yes"/>
			<point x="247.6307983398" y="342.715637207"/>
			<point x="384.7415771484" y="142.2827148438"/>
			<point x="563.8868408203" y="142.2827148438" type="qcurve" smooth="yes"/>
			<point x="667.0576782227" y="142.2827148438"/>
			<point x="825.8189697266" y="199.2301635742"/>
			<point x="889.7028808594" y="245.153137207" type="qcurve"/>
			<point x="951.6314086914" y="167" type="line"/>
			<point x="873.8772583008" y="85"/>
			<point x="697.5673828125" y="-22.0244140625"/>
			<point x="558.1480102539" y="-22.0244140625" type="qcurve" smooth="yes"/>
			<point x="354.913269043" y="-22.0244140625"/>
			<point x="61.9975585938" y="260.6063232422"/>
		</contour>
	</outline>
	<anchor name="bottom" x="563" y="0"/>
	<anchor name="top" x="534" y="1000"/>
</glyph>
<glyph name="e" format="2">
	<unicode hex="0065"/>
	<advance width="1020"/>
	<outline>
		<contour>
			<point x="61.8864746094" y="496.7406616211" type="qcurve" smooth="yes"/>
			<point x="61.8864746094" y="725.1963500977"/>
			<point x="311.9494628906" y="1020.4653320312"/>
			<point x="539.8389892578" y="1020.4653320312" type="qcurve" smooth="yes"/>
			<point x="734.5375976562" y="1020.4653320312"/>
			<point x="955.8209838867" y="789.1063232422"/>
			<point x="976.9945678711" y="578.3704833984" type="qcurve"/>
			<point x="977.7493896484" y="512.9816894531" type="line"/>
			<point x="166" y="528" type="line"/>
			<point x="166" y="624" type="line"/>
			<point x="807.5182495117" y="612.6733398438" type="line"/>
			<point x="795.8636474609" y="749.6973266602"/>
			<point x="639.7191162109" y="902.6968383789"/>
			<point x="524.6319580078" y="902.6968383789" type="qcurve" smooth="yes"/>
			<point x="400.3685302734" y="902.6968383789"/>
			<point x="243.0872192383" y="720.7005004883"/>
			<point x="244.0872192383" y="529.1924438477" type="qcurve" smooth="yes"/>
			<point x="245.0872192383" y="347.0175170898"/>
			<point x="385.250793457" y="148.1697998047"/>
			<point x="569.3084106445" y="148.1697998047" type="qcurve" smooth="yes"/>
			<point x="666.0755004883" y="148.1697998047"/>
			<point x="850.1875610352" y="221.9897460938"/>
			<point x="882.0686035156" y="267.768737793" type="qcurve"/>
			<point x="931.6209716797" y="192.9232177734" type="line"/>
			<point x="923.9242553711" y="109.4158325195"/>
			<point x="712.6150512695" y="-22.5219726562"/>
			<point x="580.6125488281" y="-22.5219726562" type="qcurve" smooth="yes"/>
			<point x="348.3649291992" y="-22.5219726562"/>
			<point x="61.8864746094" y="261.8124389648"/>
		</contour>
	</outline>
	<anchor name="bottom" x="578" y="0"/>
	<anchor name="ogonek" x="744" y="0"/>
	<anchor name="top" x="539" y="1000"/>
</glyph>
<glyph name="f" format="2">
	<unicode hex="0066"/>
	<advance width="633"/>
	<outline>
		<contour>
			<point x="88.0864257812" y="0" type="line"/>
			<point x="88.0864257812" y="79.9975585938" type="line"/>
			<point x="230.0864257812" y="114.9975585938" type="line"/>
			<point x="236.0864257812" y="548.9879150391" type="line"/>
			<point x="236.0864257812" y="830.2640991211" type="line"/>
			<point x="63.7547607422" y="851.2640991211" type="line"/>
			<point x="63.7547607422" y="951.9557495117" type="line"/>
			<point x="237.0864257812" y="977.9557495117" type="line"/>
			<point x="235.0864257812" y="1292.8698730469" type="line" smooth="yes"/>
			<point x="230.01953125" y="1398.3993530273"/>
			<point x="347.8742675781" y="1526.2780761719"/>
			<point x="450.1714477539" y="1526.2780761719" type="qcurve" smooth="yes"/>
			<point x="502.0872802734" y="1526.2780761719"/>
			<point x="558.6776733398" y="1502.4590454102"/>
			<point x="581.5311889648" y="1494.5239868164" type="qcurve" smooth="yes"/>
			<point x="588.6680908203" y="1486.87890625" type="line"/>
			<point x="599.2263793945" y="1368.391784668" type="line"/>
			<point x="586.2161254883" y="1372.4811401367" type="line" smooth="yes"/>
			<point x="580.4904174805" y="1375.0809326172"/>
			<point x="536.0068969727" y="1384.4808349609"/>
			<point x="512.4281005859" y="1384.4808349609" type="qcurve" smooth="yes"/>
			<point x="448.0596313477" y="1384.4808349609"/>
			<point x="382.7937011719" y="1321.5702514648"/>
			<point x="385.5069580078" y="1269.4545288086" type="qcurve" smooth="yes"/>
			<point x="384.9069824219" y="967.9557495117" type="line"/>
			<point x="633.3123779297" y="967.9557495117" type="line"/>
			<point x="633.3123779297" y="848.2640991211" type="line"/>
			<point x="383.9069824219" y="848.2640991211" type="line"/>
			<point x="382.9069824219" y="548.9879150391" type="line"/>
			<point x="386.9069824219" y="114.9975585938" type="line"/>
			<point x="558.9069824219" y="79.9975585938" type="line"/>
			<point x="558.9069824219" y="0" type="line"/>
		</contour>
	</outline>
	<anchor name="bottom" x="314" y="0"/>
	<anchor name="top" x="314" y="1536"/>
</glyph>
<glyph name="h" format="2">
	<unicode hex="0068"/>
	<advance width="1268"/>
	<outline>
		<contour>
			<point x="71.8363037109" y="0" type="line"/>
			<point x="71.8363037109" y="79.9975585938" type="line"/>
			<point x="219.8363037109" y="114.9975585938" type="line"/>
			<point x="221.8363037109" y="558.9879150391" type="line"/>
			<point x="219.8363037109" y="1376.0024414062" type="line"/>
			<point x="71.8363037109" y="1406.0024414062" type="line"/>
			<point x="71.8363037109" y="1500" type="line"/>
			<point x="300.8304443359" y="1529.0244140625" type="line"/>
			<point x="332.8304443359" y="1529.0244140625" type="line"/>
			<point x="389.8304443359" y="1482.0244140625" type="line"/>
			<point x="389.8304443359" y="857.2373046875" type="line"/>
			<point x="439.3861694336" y="922.6237792969"/>
			<point x="626.9468994141" y="1015.5311279297"/>
			<point x="732.4301147461" y="1015.5311279297" type="qcurve" smooth="yes"/>
			<point x="887.6046142578" y="1015.5311279297"/>
			<point x="1046.4514160156" y="873.1613769531"/>
			<point x="1046.4514160156" y="750.4788208008" type="qcurve" smooth="yes"/>
			<point x="1046.4514160156" y="660.8532714844"/>
			<point x="1053.9028320312" y="589.9758300781"/>
			<point x="1053.9028320312" y="589.9758300781" type="qcurve"/>
			<point x="1052.4514160156" y="114.9975585938" type="line"/>
			<point x="1202.4514160156" y="79.9975585938" type="line"/>
			<point x="1202.4514160156" y="0" type="line"/>
			<point x="760.4572753906" y="0" type="line"/>
			<point x="760.4572753906" y="79.9975585938" type="line"/>
			<point x="874.4572753906" y="114.9975585938" type="line"/>
			<point x="878.4572753906" y="532.5792236328" type="line"/>
			<point x="878.4572753906" y="715.2158813477" type="line" smooth="yes"/>
			<point x="878.4572753906" y="777.4813842773"/>
			<point x="770.4940185547" y="876.1391601562"/>
			<point x="678.1676025391" y="876.1391601562" type="qcurve" smooth="yes"/>
			<point x="594.9254150391" y="876.1391601562"/>
			<point x="441.2772216797" y="805.4889526367"/>
			<point x="389.5816650391" y="730.8797607422" type="qcurve"/>
			<point x="386.8304443359" y="539.2962646484" type="line"/>
			<point x="389.8304443359" y="114.9975585938" type="line"/>
			<point x="516.8304443359" y="79.9975585938" type="line"/>
			<point x="516.8304443359" y="0" type="line"/>
		</contour>
	</outline>
	<anchor name="bottom" x="629" y="0"/>
	<anchor name="center" x="347" y="1202"/>
	<anchor name="top" x="304" y="1534"/>
</glyph>
<glyph name="k" format="2">
	<unicode hex="006B"/>
	<advance width="1071"/>
	<outline>
		<contour>
			<point x="75.6525878906" y="0" type="line"/>
			<point x="75.6525878906" y="79.9975585938" type="line"/>
			<point x="223.6525878906" y="114.9975585938" type="line"/>
			<point x="225.6525878906" y="532" type="line"/>
			<point x="223.6525878906" y="1376.0024414062" type="line"/>
			<point x="75.6525878906" y="1406.0024414062" type="line"/>
			<point x="75.6525878906" y="1500" type="line"/>
			<point x="300.1177978516" y="1529.0244140625" type="line"/>
			<point x="332.1177978516" y="1529.0244140625" type="line"/>
			<point x="389.1177978516" y="1482.0244140625" type="line"/>
			<point x="392.1177978516" y="552" type="line"/>
			<point x="389.1177978516" y="114.9975585938" type="line"/>
			<point x="516.1177978516" y="79.9975585938" type="line"/>
			<point x="516.1177978516" y="0" type="line"/>
		</contour>
		<contour>
			<point x="302.2427978516" y="374.2932128906" type="line"/>
			<point x="262.1235351562" y="455.7137451172" type="line"/>
			<point x="680.0678100586" y="869.3994140625" type="line"/>
			<point x="551.0678100586" y="899.3994140625" type="line"/>
			<point x="551.0678100586" y="999.3969726562" type="line"/>
			<point x="999.207824707" y="999.3969726562" type="line"/>
			<point x="999.207824707" y="899.3994140625" type="line"/>
			<point x="818.207824707" y="864.3994140625" type="line"/>
		</contour>
		<contour>
			<point x="486.3596801758" y="587.9337768555" type="line"/>
			<point x="570.5772094727" y="740.4333496094" type="line"/>
			<point x="984.5905761719" y="114.9975585938" type="line"/>
			<point x="1098.5905761719" y="79.9975585938" type="line"/>
			<point x="1098.5905761719" y="0" type="line"/>
			<point x="813.3079833984" y="0" type="line"/>
			<point x="797.3079833984" y="68.9975585938" type="line"/>
			<point x="806.3079833984" y="100.9975585938" type="line"/>
		</contour>
	</outline>
	<anchor name="bottom" x="608" y="0"/>
	<anchor name="top" x="578" y="1534"/>
</glyph>
<glyph name="l" format="2">
	<unicode hex="006C"/>
	<advance width="619"/>
	<outline>
		<contour>
			<point x="98.8157958984" y="0" type="line"/>
			<point x="98.8157958984" y="79.9975585938" type="line"/>
			<point x="240.8157958984" y="114.9975585938" type="line"/>
			<point x="242.8157958984" y="527" type="line"/>
			<point x="240.8157958984" y="1374.0024414062" type="line"/>
			<point x="84.8157958984" y="1404.0024414062" type="line"/>
			<point x="84.8157958984" y="1500" type="line"/>
			<point x="326.8099365234" y="1529.0244140625" type="line"/>
			<point x="358.8099365234" y="1529.0244140625" type="line"/>
			<point x="415.8099365234" y="1482.0244140625" type="line"/>
			<point x="413.8099365234" y="527" type="line"/>
			<point x="415.8099365234" y="114.9975585938" type="line"/>
			<point x="552.8099365234" y="79.9975585938" type="line"/>
			<point x="552.8099365234" y="0" type="line"/>
		</contour>
	</outline>
	<anchor name="bottom" x="316" y="0"/>
	<anchor name="center" x="316" y="750"/>
	<anchor name="top" x="316" y="1534"/>
	<anchor name="topright" x="367" y="1000"/>
	<anchor name="centerright" x="746" y="680"/>
	<anchor name="yu_dash" x="321" y="500"/>
	<anchor name="liga" x="632" y="0"/>
</glyph>
<glyph name="m" format="2">
	<unicode hex="006D"/>
	<advance width="1918"/>
	<outline>
		<contour>
			<point x="77.2239990234" y="0" type="line"/>
			<point x="77.2239990234" y="79.9975585938" type="line"/>
			<point x="225.2239990234" y="114.9975585938" type="line"/>
			<point x="227.2239990234" y="552" type="line"/>
			<point x="225.2239990234" y="846.7006225586" type="line"/>
			<point x="77.2239990234" y="876.7006225586" type="line"/>
			<point x="77.2239990234" y="969.6981811523" type="line"/>
			<point x="320.4633178711" y="1006.7225952148" type="line"/>
			<point x="355.4633178711" y="979.7225952148" type="line"/>
			<point x="378.4633178711" y="850.6981811523" type="line"/>
			<point x="431.8161010742" y="930.6981811523"/>
			<point x="616.1898193359" y="1014.9811401367"/>
			<point x="740.6496582031" y="1014.9811401367" type="qcurve" smooth="yes"/>
			<point x="886.5765991211" y="1014.9811401367"/>
			<point x="1018.3076782227" y="919.9811401367"/>
			<point x="1036.8560180664" y="859.1161499023" type="qcurve"/>
			<point x="1085.0715332031" y="920.9811401367"/>
			<point x="1282.5018310547" y="1014.9811401367"/>
			<point x="1395.9985351562" y="1014.9811401367" type="qcurve" smooth="yes"/>
			<point x="1547.8475952148" y="1014.9811401367"/>
			<point x="1695.9273681641" y="848.9811401367"/>
			<point x="1695.9273681641" y="718.9811401367" type="qcurve" smooth="yes"/>
			<point x="1694.9273681641" y="674.9451904297"/>
			<point x="1696.9833984375" y="554.3734130859"/>
			<point x="1696.6821899414" y="561" type="qcurve" smooth="yes"/>
			<point x="1702.6821899414" y="113.9975585938" type="line"/>
			<point x="1852.6821899414" y="79.9975585938" type="line"/>
			<point x="1852.6821899414" y="0" type="line"/>
			<point x="1426.2169799805" y="0" type="line"/>
			<point x="1426.2169799805" y="79.9975585938" type="line"/>
			<point x="1530.2169799805" y="114.9975585938" type="line"/>
			<point x="1533.2169799805" y="510" type="line"/>
			<point x="1535.0327758789" y="715.6274414062" type="line" smooth="yes"/>
			<point x="1535.7590942383" y="791.6274414062"/>
			<point x="1426.7116088867" y="865.6274414062"/>
			<point x="1334.7483520508" y="865.6274414062" type="qcurve" smooth="yes"/>
			<point x="1257.7565917969" y="865.6274414062"/>
			<point x="1089.2521972656" y="785.3503417969"/>
			<point x="1046.8153076172" y="736.1766357422" type="qcurve"/>
			<point x="1045.3626708984" y="695.6998291016"/>
			<point x="1043.7543334961" y="519.7830810547"/>
			<point x="1042.9995117188" y="524" type="qcurve" smooth="yes"/>
			<point x="1045.9995117188" y="114.9975585938" type="line"/>
			<point x="1148.9995117188" y="79.9975585938" type="line"/>
			<point x="1148.9995117188" y="0" type="line"/>
			<point x="774.0246582031" y="0" type="line"/>
			<point x="774.0246582031" y="79.9975585938" type="line"/>
			<point x="878.0246582031" y="114.9975585938" type="line"/>
			<point x="880.0246582031" y="552" type="line"/>
			<point x="880.0246582031" y="748.6274414062" type="line" smooth="yes"/>
			<point x="880.0246582031" y="807.6274414062"/>
			<point x="776.6140136719" y="864.6274414062"/>
			<point x="691.8297119141" y="865.6274414062" type="qcurve" smooth="yes"/>
			<point x="613.6822509766" y="866.6274414062"/>
			<point x="436.5370483398" y="781.71875"/>
			<point x="393.4633178711" y="729.3660888672" type="qcurve"/>
			<point x="392.4633178711" y="552" type="line"/>
			<point x="394.4633178711" y="114.9975585938" type="line"/>
			<point x="498.4633178711" y="79.9975585938" type="line"/>
			<point x="498.4633178711" y="0" type="line"/>
		</contour>
	</outline>
	<anchor name="bottom" x="958" y="0"/>
	<anchor name="top" x="958" y="1000"/>
</glyph>
<glyph name="n" format="2">
	<unicode hex="006E"/>
	<advance width="1273"/>
	<outline>
		<contour>
			<point x="77.2239990234" y="0" type="line"/>
			<point x="77.2239990234" y="79.9975585938" type="line"/>
			<point x="225.2239990234" y="114.9975585938" type="line"/>
			<point x="227.2239990234" y="558.9879150391" type="line"/>
			<point x="225.2239990234" y="846.7006225586" type="line"/>
			<point x="77.2239990234" y="876.7006225586" type="line"/>
			<point x="77.2239990234" y="969.6981811523" type="line"/>
			<point x="327.2567138672" y="1006.7225952148" type="line"/>
			<point x="362.2567138672" y="979.7225952148" type="line"/>
			<point x="388.7663574219" y="839.7739257812" type="line"/>
			<point x="447.7427978516" y="916.2563476562"/>
			<point x="637.5297241211" y="1014.9811401367"/>
			<point x="764.991394043" y="1014.9811401367" type="qcurve" smooth="yes"/>
			<point x="910.3532104492" y="1014.9811401367"/>
			<point x="1051.8391113281" y="864.0775756836"/>
			<point x="1051.8391113281" y="726.5293579102" type="qcurve" smooth="yes"/>
			<point x="1051.8391113281" y="675.6861572266"/>
			<point x="1052.0391235352" y="552.4515380859"/>
			<point x="1051.8391113281" y="551.2708740234" type="qcurve" smooth="yes"/>
			<point x="1057.8391113281" y="113.9975585938" type="line"/>
			<point x="1207.8391113281" y="79.9975585938" type="line"/>
			<point x="1207.8391113281" y="0" type="line"/>
			<point x="765.8449707031" y="0" type="line"/>
			<point x="765.8449707031" y="79.9975585938" type="line"/>
			<point x="879.8449707031" y="114.9975585938" type="line"/>
			<point x="883.8449707031" y="532.5792236328" type="line"/>
			<point x="883.8449707031" y="713.6802978516" type="line" smooth="yes"/>
			<point x="883.8449707031" y="789.21875"/>
			<point x="773.7027587891" y="870.0746459961"/>
			<point x="683.5552978516" y="870.0746459961" type="qcurve" smooth="yes"/>
			<point x="591.3977661133" y="870.0746459961"/>
			<point x="430.3041992188" y="782.1129150391"/>
			<point x="395.2181396484" y="723.3315429688" type="qcurve"/>
			<point x="392.2181396484" y="539.2962646484" type="line"/>
			<point x="395.2181396484" y="114.9975585938" type="line"/>
			<point x="522.2181396484" y="79.9975585938" type="line"/>
			<point x="522.2181396484" y="0" type="line"/>
		</contour>
	</outline>
	<anchor name="bottom" x="632" y="0"/>
	<anchor name="top" x="632" y="1000"/>
	<anchor name="liga" x="1264" y="0"/>
</glyph>
<glyph name="o" format="2">
	<unicode hex="006F"/>
	<advance width="1166"/>
	<outline>
		<contour>
			<point x="63.9975585938" y="499.6984863281" type="qcurve" smooth="yes"/>
			<point x="63.9975585938" y="730.4391479492"/>
			<point x="345.8257446289" y="1016.1921386719"/>
			<point x="577.198425293" y="1016.1921386719" type="qcurve" smooth="yes"/>
			<point x="811.0807495117" y="1016.1921386719"/>
			<point x="1101.7502441406" y="750.5355224609"/>
			<point x="1101.7502441406" y="505.6984863281" type="qcurve" smooth="yes"/>
			<point x="1101.7502441406" y="274.2163696289"/>
			<point x="818.6924438477" y="-19.5366210938"/>
			<point x="586.5649414062" y="-19.5366210938" type="qcurve" smooth="yes"/>
			<point x="353.1381225586" y="-19.5366210938"/>
			<point x="63.9975585938" y="251.1199951172"/>
		</contour>
		<contour>
			<point x="244.1018676758" y="514.6984863281" type="qcurve" smooth="yes"/>
			<point x="245.3326416016" y="343.7800292969"/>
			<point x="429.8751831055" y="76.0778198242"/>
			<point x="580.0204467773" y="76.0778198242" type="qcurve" smooth="yes"/>
			<point x="742.1361694336" y="76.0778198242"/>
			<point x="917.1170043945" y="316.0933837891"/>
			<point x="917.1170043945" y="500.6984863281" type="qcurve" smooth="yes"/>
			<point x="917.1170043945" y="670.0093994141"/>
			<point x="732.7245483398" y="900.1929931641"/>
			<point x="582.0204467773" y="900.1929931641" type="qcurve" smooth="yes"/>
			<point x="418.4635620117" y="900.1929931641"/>
			<point x="242.87109375" y="695.9117431641"/>
		</contour>
	</outline>
	<anchor name="bottom" x="584" y="0"/>
	<anchor name="center" x="584" y="500"/>
	<anchor name="ogonek" x="747" y="0"/>
	<anchor name="top" x="584" y="1000"/>
	<anchor name="topright" x="751" y="1000"/>
	<anchor name="GRKtop" x="584" y="1000"/>
	<anchor name="yu_dash" x="150" y="500"/>
</glyph>
<glyph name="p" format="2">
	<unicode hex="0070"/>
	<advance width="1195"/>
	<outline>
		<contour>
			<point x="54.1832275391" y="-480" type="line"/>
			<point x="54.1832275391" y="-401.0024414062" type="line"/>
			<point x="197.1832275391" y="-366.0024414062" type="line"/>
			<point x="199.1832275391" y="393.8670654297" type="line"/>
			<point x="197.1832275391" y="846.3994140625" type="line"/>
			<point x="48.1832275391" y="876.3994140625" type="line"/>
			<point x="48.1832275391" y="969.3969726562" type="line"/>
			<point x="309.9514770508" y="998.4213867188" type="line"/>
			<point x="344.9514770508" y="971.4213867188" type="line"/>
			<point x="369.9514770508" y="857.3969726562" type="line"/>
			<point x="358.6030273438" y="914.5760498047"/>
			<point x="556.2668457031" y="1014.6799316406"/>
			<point x="720.3109130859" y="1014.6799316406" type="qcurve" smooth="yes"/>
			<point x="915.0173950195" y="1014.6799316406"/>
			<point x="1129.1987304688" y="752.1232299805"/>
			<point x="1129.1987304688" y="533.6594238281" type="qcurve" smooth="yes"/>
			<point x="1129.1987304688" y="291.8369140625"/>
			<point x="892.4381713867" y="-7.0244140625"/>
			<point x="663.4765014648" y="-7.0244140625" type="qcurve" smooth="yes"/>
			<point x="510.4237060547" y="-7.0244140625"/>
			<point x="352.4748535156" y="62.0504150391"/>
			<point x="367.9514770508" y="89" type="qcurve"/>
			<point x="369.9514770508" y="-366.0024414062" type="line"/>
			<point x="541.9514770508" y="-401.0024414062" type="line"/>
			<point x="541.9514770508" y="-480" type="line"/>
		</contour>
		<contour>
			<point x="366.9514770508" y="262.717956543" type="line"/>
			<point x="388.5202026367" y="195.0108032227"/>
			<point x="554.6332397461" y="92.8971557617"/>
			<point x="647.5080566406" y="92.8971557617" type="qcurve" smooth="yes"/>
			<point x="790.6828613281" y="92.8971557617"/>
			<point x="959.6619262695" y="377.4257202148"/>
			<point x="959.6619262695" y="487.6594238281" type="qcurve" smooth="yes"/>
			<point x="959.6619262695" y="613.5260620117"/>
			<point x="815.1881713867" y="897.1436767578"/>
			<point x="662.895690918" y="897.1436767578" type="qcurve" smooth="yes"/>
			<point x="564.4658203125" y="897.1436767578"/>
			<point x="416.2388916016" y="801.6575317383"/>
			<point x="367.9514770508" y="722.1942138672" type="qcurve"/>
			<point x="363.9514770508" y="412.0912475586" type="line"/>
		</contour>
	</outline>
	<anchor name="bottom" x="599" y="0"/>
	<anchor name="top" x="599" y="1000"/>
</glyph>
<glyph name="r" format="2">
	<unicode hex="0072"/>
	<advance width="940"/>
	<outline>
		<contour>
			<point x="79.9995117188" y="0" type="line"/>
			<point x="79.9995117188" y="79.9975585938" type="line"/>
			<point x="223.9995117188" y="114.9975585938" type="line"/>
			<point x="225.9995117188" y="520.9154052734" type="line"/>
			<point x="224.9995117188" y="846.7006225586" type="line"/>
			<point x="76.9995117188" y="876.7006225586" type="line"/>
			<point x="76.9995117188" y="969.6981811523" type="line"/>
			<point x="336.844909668" y="1006.7225952148" type="line"/>
			<point x="371.4817504883" y="979.7225952148" type="line"/>
			<point x="394.5997314453" y="853.6981811523" type="line"/>
			<point x="448.0866699219" y="917.6981811523"/>
			<point x="667.8475952148" y="1000.2725830078"/>
			<point x="786.9456787109" y="999.9713745117" type="qcurve" smooth="yes"/>
			<point x="888.3649902344" y="999.9713745117" type="line"/>
			<point x="888.3649902344" y="656.212890625" type="line"/>
			<point x="779.1149902344" y="656.212890625" type="line"/>
			<point x="751.1149902344" y="791.8181762695" type="line"/>
			<point x="671.6714477539" y="799.8181762695"/>
			<point x="464.3056030273" y="775.006652832"/>
			<point x="395.4647216797" y="725.9297485352" type="qcurve"/>
			<point x="393.4647216797" y="520.9154052734" type="line"/>
			<point x="395.4647216797" y="114.9975585938" type="line"/>
			<point x="558.4647216797" y="79.9975585938" type="line"/>
			<point x="558.4647216797" y="0" type="line"/>
		</contour>
	</outline>
	<anchor name="bottom" x="432" y="0"/>
	<anchor name="top" x="486" y="1000"/>
</glyph>
<glyph name="s" format="2">
	<unicode hex="0073"/>
	<advance width="878"/>
	<outline>
		<contour>
			<point x="43.033665157" y="0" type="line"/>
			<point x="43.033665157" y="326.6649169922" type="line"/>
			<point x="153.783665157" y="326.6649169922" type="line"/>
			<point x="166.783665157" y="258.9994506836" type="line" smooth="yes"/>
			<point x="188.7907272558" y="175.9994506836"/>
			<point x="343.8252731542" y="89.4823608398"/>
			<point x="439.137284873" y="89.4823608398" type="qcurve" smooth="yes"/>
			<point x="536.519731162" y="89.4823608398"/>
			<point x="670.1620041112" y="174.2777709961"/>
			<point x="669.7064987402" y="255.9076538086" type="qcurve" smooth="yes"/>
			<point x="669.2509933691" y="348.9525756836"/>
			<point x="539.0541549902" y="426.3140258789"/>
			<point x="375.4786545019" y="473.2880859375" type="qcurve" smooth="yes"/>
			<point x="197.8958297948" y="528.0619506836"/>
			<point x="79.3953415136" y="648.8866577148"/>
			<point x="80.299290157" y="759.9954833984" type="qcurve" smooth="yes"/>
			<point x="81.217362998" y="877.2750244141"/>
			<point x="252.2617355566" y="1021.6701660156"/>
			<point x="406.7661300878" y="1021.6701660156" type="qcurve" smooth="yes"/>
			<point x="499.5210739355" y="1021.6701660156"/>
			<point x="581.3053146581" y="992.9066162109"/>
			<point x="622.6862961034" y="962.9066162109" type="qcurve"/>
			<point x="642.6862961034" y="999.3969726562" type="line"/>
			<point x="730.1862961034" y="999.3969726562" type="line"/>
			<point x="730.1862961034" y="713.9372558594" type="line"/>
			<point x="615.6862961034" y="713.9372558594" type="line"/>
			<point x="597.7647262792" y="780.6908569336" type="line" smooth="yes"/>
			<point x="578.5761886816" y="840.9360351562"/>
			<point x="479.6057907323" y="911.2092285156"/>
			<point x="412.2718063573" y="911.2092285156" type="qcurve" smooth="yes"/>
			<point x="318.9569870214" y="911.2092285156"/>
			<point x="226.2340866308" y="843.5755615234"/>
			<point x="226.2340866308" y="792.2217407227" type="qcurve" smooth="yes"/>
			<point x="226.2340866308" y="730.6407470703"/>
			<point x="312.389133907" y="661.3267822266"/>
			<point x="476.6478619343" y="615.1402587891" type="qcurve" smooth="yes"/>
			<point x="627.5769390828" y="573.3973388672"/>
			<point x="815.9510055761" y="435.5942993164"/>
			<point x="815.9510055761" y="288.1039428711" type="qcurve" smooth="yes"/>
			<point x="815.9510055761" y="146.3491821289"/>
			<point x="634.6936813573" y="-23.5170898438"/>
			<point x="481.1591354589" y="-23.5170898438" type="qcurve" smooth="yes"/>
			<point x="378.2205978612" y="-23.5170898438"/>
			<point x="207.2950607519" y="14.735534668"/>
			<point x="157.533665157" y="51.4903564453" type="qcurve"/>
			<point x="126.783665157" y="0" type="line"/>
		</contour>
	</outline>
	<anchor name="bottom" x="468" y="0"/>
	<anchor name="top" x="416" y="1000"/>
</glyph>
<glyph name="t" format="2">
	<unicode hex="0074"/>
	<advance width="687"/>
	<outline>
		<contour>
			<point x="30.9794921875" y="856.1817626953" type="line"/>
			<point x="30.9794921875" y="946.6424560547" type="line"/>
			<point x="184.9794921875" y="976.6424560547"/>
			<point x="287.4815673828" y="1104.5655517578"/>
			<point x="347.3815917969" y="1232.5655517578" type="qcurve"/>
			<point x="323.1030883789" y="1232.5655517578" type="line"/>
			<point x="382.1030883789" y="1169.5655517578" type="line"/>
			<point x="377.1030883789" y="965.5655517578" type="line"/>
			<point x="606.0820922852" y="965.5655517578" type="line"/>
			<point x="606.0820922852" y="854.1817626953" type="line"/>
			<point x="373.1030883789" y="854.1817626953" type="line"/>
			<point x="365.1030883789" y="536.9395751953" type="line"/>
			<point x="370.1030883789" y="218.6145629883" type="line" smooth="yes"/>
			<point x="370.8723144531" y="170.6145629883"/>
			<point x="421.1030883789" y="124.6145629883"/>
			<point x="481.0820922852" y="124.6145629883" type="qcurve" smooth="yes"/>
			<point x="613.0820922852" y="124.6145629883" type="line"/>
			<point x="613.0820922852" y="30" type="line"/>
			<point x="325.4724731445" y="-9.7756347656" type="line"/>
			<point x="253.3485717773" y="-9.7756347656"/>
			<point x="185.8637695312" y="95.469543457"/>
			<point x="187.8637695312" y="192.2243652344" type="qcurve" smooth="yes"/>
			<point x="194.8637695312" y="536.9395751953" type="line"/>
			<point x="194.8637695312" y="838.1817626953" type="line"/>
		</contour>
	</outline>
	<anchor name="bottom" x="322" y="0"/>
	<anchor name="center" x="312" y="622"/>
	<anchor name="top" x="322" y="1179"/>
	<anchor name="topright" x="540" y="1000"/>
</glyph>
<glyph name="u" format="2">
	<unicode hex="0075"/>
	<advance width="1250"/>
	<outline>
		<contour>
			<point x="58.2648925781" y="876.3994140625" type="line"/>
			<point x="58.2648925781" y="969.3969726562" type="line"/>
			<point x="253.9945678711" y="1001.3969726562" type="line"/>
			<point x="331.9945678711" y="1001.3969726562" type="line"/>
			<point x="374.9945678711" y="952.3969726562" type="line"/>
			<point x="373.9945678711" y="473.103515625" type="line"/>
			<point x="373.9945678711" y="244.4915161133" type="line" smooth="yes"/>
			<point x="373.9945678711" y="208.8825073242"/>
			<point x="489.7885131836" y="127.001159668"/>
			<point x="573.903503418" y="127.001159668" type="qcurve" smooth="yes"/>
			<point x="653.145690918" y="126.001159668"/>
			<point x="807.9213256836" y="197.5908813477"/>
			<point x="855.8056030273" y="246.15234375" type="qcurve"/>
			<point x="856.8056030273" y="467.8791503906" type="line"/>
			<point x="854.8056030273" y="846.3994140625" type="line"/>
			<point x="718.8056030273" y="876.3994140625" type="line"/>
			<point x="718.8056030273" y="969.3969726562" type="line"/>
			<point x="908.2901000977" y="1001.3969726562" type="line"/>
			<point x="986.2901000977" y="1001.3969726562" type="line"/>
			<point x="1029.2901000977" y="952.3969726562" type="line"/>
			<point x="1027.2901000977" y="467.8791503906" type="line"/>
			<point x="1029.2901000977" y="155.5979614258" type="line"/>
			<point x="1173.2901000977" y="125.5979614258" type="line"/>
			<point x="1173.2901000977" y="26" type="line"/>
			<point x="936.8056030273" y="-8" type="line"/>
			<point x="879.8056030273" y="39" type="line"/>
			<point x="852.786315918" y="134" type="line"/>
			<point x="795.8080444336" y="61.9951171875"/>
			<point x="616.7654418945" y="-17.7756347656"/>
			<point x="512.9567871094" y="-17.7756347656" type="qcurve" smooth="yes"/>
			<point x="355.3314819336" y="-17.7756347656"/>
			<point x="201.2648925781" y="145.3481445312"/>
			<point x="201.2648925781" y="277.2243652344" type="qcurve" smooth="yes"/>
			<point x="201.2648925781" y="347.2243652344"/>
			<point x="203.2648925781" y="501.103515625"/>
			<point x="203.2648925781" y="501.103515625" type="qcurve" smooth="yes"/>
			<point x="200.2648925781" y="846.3994140625" type="line"/>
		</contour>
	</outline>
	<anchor name="bottom" x="622" y="0"/>
	<anchor name="ogonek" x="1030" y="20"/>
	<anchor name="top" x="622" y="1000"/>
	<anchor name="topright" x="1005" y="1000"/>
	<anchor name="cy_descender" x="1178" y="80"/>
</glyph>
<glyph name="w" format="2">
	<unicode hex="0077"/>
	<advance width="1536"/>
	<outline>
		<contour>
			<point x="414.4794921875" y="4.9755859375" type="line"/>
			<point x="231.7150878906" y="523.4392089844" type="line"/>
			<point x="87.2073364258" y="864.3994140625" type="line"/>
			<point x="-27.7926635742" y="899.3994140625" type="line"/>
			<point x="-27.7926635742" y="999.3969726562" type="line"/>
			<point x="356.1024169922" y="999.3969726562" type="line"/>
			<point x="356.1024169922" y="899.3994140625" type="line"/>
			<point x="253.1024169922" y="864.3994140625" type="line"/>
			<point x="388.6099243164" y="474.3878173828" type="line"/>
			<point x="483" y="294" type="line"/>
			<point x="521" y="180" type="line"/>
			<point x="531" y="180" type="line"/>
			<point x="568" y="294" type="line"/>
			<point x="585.8950195312" y="393.8472900391" type="line"/>
			<point x="725" y="747" type="line"/>
			<point x="645.3873901367" y="864.3994140625" type="line"/>
			<point x="540.3873901367" y="899.3994140625" type="line"/>
			<point x="540.3873901367" y="999.3969726562" type="line"/>
			<point x="920.3485107422" y="999.3969726562" type="line"/>
			<point x="920.3485107422" y="899.3994140625" type="line"/>
			<point x="828.3485107422" y="864.3994140625" type="line"/>
			<point x="985.2579345703" y="398.7243652344" type="line"/>
			<point x="1045" y="294" type="line"/>
			<point x="1082" y="180" type="line"/>
			<point x="1092" y="180" type="line"/>
			<point x="1128" y="294" type="line"/>
			<point x="1168.6117553711" y="470.3837280273" type="line"/>
			<point x="1301.1896362305" y="864.3994140625" type="line"/>
			<point x="1199.1896362305" y="899.3994140625" type="line"/>
			<point x="1199.1896362305" y="999.3969726562" type="line"/>
			<point x="1553.0874633789" y="999.3969726562" type="line"/>
			<point x="1553.0874633789" y="899.3994140625" type="line"/>
			<point x="1432.0874633789" y="864.3994140625" type="line"/>
			<point x="1308" y="496" type="line"/>
			<point x="1179.6591796875" y="4.9755859375" type="line"/>
			<point x="990.8588256836" y="4.9755859375" type="line"/>
			<point x="830" y="480" type="line"/>
			<point x="790" y="595" type="line"/>
			<point x="780" y="595" type="line"/>
			<point x="741" y="480" type="line"/>
			<point x="586.5247192383" y="4.9755859375" type="line"/>
		</contour>
	</outline>
	<anchor name="bottom" x="787" y="0"/>
	<anchor name="top" x="787" y="1000"/>
</glyph>
<glyph name="x" format="2">
	<unicode hex="0078"/>
	<advance width="915"/>
	<outline>
		<contour>
			<point x="-15.2044067383" y="0" type="line"/>
			<point x="-15.2044067383" y="79.9975585938" type="line"/>
			<point x="113.7955932617" y="115.9975585938" type="line"/>
			<point x="444" y="480" type="line"/>
			<point x="89.9194335938" y="864.3994140625" type="line"/>
			<point x="-9.0805664062" y="899.3994140625" type="line"/>
			<point x="-9.0805664062" y="999.3969726562" type="line"/>
			<point x="371.1146240234" y="999.3969726562" type="line"/>
			<point x="371.1146240234" y="899.3994140625" type="line"/>
			<point x="291.1146240234" y="862.3994140625" type="line"/>
			<point x="454" y="701" type="line"/>
			<point x="527" y="602" type="line"/>
			<point x="537" y="602" type="line"/>
			<point x="603" y="701" type="line"/>
			<point x="601.8981323242" y="869.3994140625" type="line"/>
			<point x="512.8981323242" y="899.3994140625" type="line"/>
			<point x="512.8981323242" y="999.3969726562" type="line"/>
			<point x="877.3585205078" y="999.3969726562" type="line"/>
			<point x="877.3585205078" y="899.3994140625" type="line"/>
			<point x="758.3585205078" y="864.3994140625" type="line"/>
			<point x="594" y="524" type="line"/>
			<point x="826.361328125" y="115.9975585938" type="line"/>
			<point x="942.361328125" y="79.9975585938" type="line"/>
			<point x="942.361328125" y="0" type="line"/>
			<point x="497.1798706055" y="0" type="line"/>
			<point x="497.1798706055" y="79.9975585938" type="line"/>
			<point x="589.1798706055" y="114.9975585938" type="line"/>
			<point x="584" y="305" type="line"/>
			<point x="511" y="402" type="line"/>
			<point x="501" y="402" type="line"/>
			<point x="439" y="305" type="line"/>
			<point x="281.2559814453" y="114.9975585938" type="line"/>
			<point x="375.2559814453" y="79.9975585938" type="line"/>
			<point x="375.2559814453" y="0" type="line"/>
		</contour>
	</outline>
	<anchor name="bottom" x="522" y="0"/>
	<anchor name="top" x="522" y="1000"/>
	<anchor name="cy_descender" x="1043" y="80"/>
</glyph>
<glyph name="y" format="2">
	<unicode hex="0079"/>
	<advance width="1026"/>
	<outline>
		<contour>
			<point x="-10" y="910" type="line"/>
			<point x="-10" y="1000.0000000001" type="line"/>
			<point x="414" y="1000.0000000001" type="line"/>
			<point x="414" y="910" type="line"/>
			<point x="281" y="873" type="line"/>
			<point x="403" y="535" type="line"/>
			<point x="486" y="301" type="line"/>
			<point x="523" y="187" type="line"/>
			<point x="533" y="187" type="line"/>
			<point x="570" y="301" type="line"/>
			<point x="655.9999999999" y="538" type="line"/>
			<point x="777" y="880" type="line"/>
			<point x="640" y="910" type="line"/>
			<point x="640" y="1000.0000000001" type="line"/>
			<point x="1056" y="1000.0000000001" type="line"/>
			<point x="1056" y="910" type="line"/>
			<point x="908" y="875" type="line"/>
			<point x="760" y="497" type="line"/>
			<point x="470" y="-287" type="line" smooth="yes"/>
			<point x="428" y="-398"/>
			<point x="286" y="-492"/>
			<point x="197" y="-492" type="qcurve"/>
			<point x="39" y="-460" type="line"/>
			<point x="39" y="-369.9999999999" type="line"/>
			<point x="140" y="-369.9999999999" type="line" smooth="yes"/>
			<point x="194" y="-369.9999999999"/>
			<point x="342" y="-308"/>
			<point x="383" y="-195" type="qcurve" smooth="yes"/>
			<point x="705.5075683594" y="-7.1429443359" type="line"/>
			<point x="242.0469970703" y="-7.1429443359" type="line"/>
			<point x="266" y="481" type="line"/>
			<point x="108" y="875" type="line"/>
		</contour>
	</outline>
	<anchor name="bottom" x="782" y="0"/>
	<anchor name="top" x="524" y="1000"/>
</glyph>
<glyph name="z" format="2">
	<unicode hex="007A"/>
	<advance width="906"/>
	<outline>
		<contour>
			<point x="77.7553710938" y="0" type="line"/>
			<point x="77.7553710938" y="116.9226074219" type="line"/>
			<point x="623.2053833008" y="872.8593139648" type="line"/>
			<point x="216.43359375" y="872.8593139648" type="line"/>
			<point x="184.43359375" y="683.5272216797" type="line"/>
			<point x="73.18359375" y="683.5272216797" type="line"/>
			<point x="73.18359375" y="999.3969726562" type="line"/>
			<point x="806.3537597656" y="999.3969726562" type="line"/>
			<point x="806.3537597656" y="883.4743652344" type="line"/>
			<point x="258.3286132812" y="126.5376586914" type="line"/>
			<point x="724.6356811523" y="126.5376586914" type="line"/>
			<point x="756.6356811523" y="312.8697509766" type="line"/>
			<point x="865.3856811523" y="312.8697509766" type="line"/>
			<point x="865.3856811523" y="0" type="line"/>
		</contour>
	</outline>
	<anchor name="bottom" x="443" y="0"/>
	<anchor name="top" x="443" y="1000"/>
	<anchor name="_liga" x="0" y="0"/>
</glyph>
<glyph name="idotless" format="2">
	<unicode hex="0131"/>
	<advance width="629"/>
	<outline>
		<contour>
			<point x="91.2647705078" y="0" type="line"/>
			<point x="91.2647705078" y="79.9975585938" type="line"/>
			<point x="239.2647705078" y="114.9975585938" type="line"/>
			<point x="241.2647705078" y="548.9879150391" type="line"/>
			<point x="238.4647216797" y="846.3994140625" type="line"/>
			<point x="91.2647705078" y="876.3994140625" type="line"/>
			<point x="91.2647705078" y="969.3969726562" type="line"/>
			<point x="297.2589111328" y="996.4213867188" type="line"/>
			<point x="375.2589111328" y="996.4213867188" type="line"/>
			<point x="418.2589111328" y="947.4213867188" type="line"/>
			<point x="411.2589111328" y="548.9879150391" type="line"/>
			<point x="413.2589111328" y="114.9975585938" type="line"/>
			<point x="561.2589111328" y="79.9975585938" type="line"/>
			<point x="561.2589111328" y="0" type="line"/>
		</contour>
	</outline>
	<anchor name="bottom" x="320" y="0"/>
	<anchor name="top" x="320" y="1000"/>
	<anchor name="ogonek" x="513" y="0"/>
	<anchor name="liga" x="639" y="0"/>
</glyph>
